<?xml version="1.0" encoding="UTF-8"?>
<svg id="Layer_1" xmlns="http://www.w3.org/2000/svg" version="1.1" viewBox="0 0 39.2 25.5">
  <!-- Generator: Adobe Illustrator 29.1.0, SVG Export Plug-In . SVG Version: 2.1.0 Build 142)  -->
  <defs>
    <style>
      .st0 {
        fill-opacity: 0;
      }

      .st0, .st1 {
        fill: #828282;
      }

      .st1 {
        fill-opacity: .9;
      }
    </style>
  </defs>
  <rect class="st0" width="39.2" height="25.5"/>
  <path class="st1" d="M15.2,2.8l.7.6c.6.5,1.1.7,1.9.7h7.2c-.3.6-.5,1.2-.7,1.9h-7c-1.2,0-1.8-.2-2.5-.9l-.7-.6c-.6-.5-1.1-.7-1.8-.7h-2.5c-1.1,0-1.7.6-1.7,1.8v2.9h16.2c0,.6.2,1.2.5,1.8H8v9.4c0,1.2.6,1.8,1.8,1.8h19.2c1.2,0,1.8-.6,1.8-1.8v-4.6c.3,0,.6,0,.8,0s.7,0,1.1,0v4.8c0,2.4-1.2,3.6-3.3,3.6H9.8c-2.4,0-3.7-1.2-3.7-3.6V5.5c0-2.4,1.2-3.5,3.2-3.5h3.3c1.2,0,1.8.2,2.5.9Z"/>
  <path class="st1" d="M37.7,7.5c0,3.3-2.7,6-6,6s-6-2.7-6-6,2.7-6,6-6,6,2.7,6,6ZM30.7,10.5c0,.5.4.9.9.9s.9-.4.9-.9c0-.5-.4-.9-.9-.9s-.9.4-.9.9ZM29.4,5.2c0,.4.2.6.6.6s.5-.2.7-.4c.3-.3.6-.5,1.1-.5s1,.3,1,.8-.4.8-1,1.2c-.5.4-.9.7-.9,1.5h0c0,.4.2.7.6.7s.6-.2.7-.6c0-.5.3-.7.8-1,.7-.5,1.2-.9,1.2-1.8s-.9-2-2.4-2-2.4.7-2.4,1.6Z"/>
</svg>